<svg xmlns="http://www.w3.org/2000/svg" viewBox="0 0 100 100">
  <defs>
    <rect id="base" x="6" y="6" rx="2" ry="2" width="88" height="8" fill="#eee"/>
  </defs>
  <use href="#base"/>
  <use href="#base" transform="rotate(180, 50, 50)"/>
  <path d="
    M 88,10
    L 88,18
    L 58,48
    L 58,52
    L 88,82
    L 88,90
    M 12,90
    L 12,82
    L 42,52
    L 42,48
    L 12,18
    L 12,10
  " stroke="#eee" stroke-width="6" stroke-linejoin="round" fill="none"/>
  <path d="
    M 50,47
    L 30,27
    L 70,27
    Z
    M 50,66
    L 20,83
    L 80,83
    Z
  " stroke="#eee" stroke-width="1" stroke-linejoin="round" fill="#eee"/>
  <rect x="48.5" y="43" width="3" height="3" rx="0.7" ry="0.7" fill="#eee">
    <animate attributeName="y" values="43;44;45;47;50;53;57;61;65;66" dur="1s" repeatCount="indefinite" calcMode="discrete"/>
  </rect>
  <rect x="48.5" y="43" width="3" height="3" rx="0.7" ry="0.7" fill="#eee">
    <animate attributeName="y" values="43;44;45;47;50;53;57;61;65;66" dur="1s" repeatCount="indefinite" calcMode="discrete" begin="0.1s"/>
  </rect>
  <rect x="48.5" y="43" width="3" height="3" rx="0.7" ry="0.7" fill="#eee">
    <animate attributeName="y" values="43;44;45;47;50;53;57;61;65;66" dur="1s" repeatCount="indefinite" calcMode="discrete" begin="0.2s"/>
  </rect>
</svg>